<svg height="27" viewBox="0 0 29 27" width="29" xmlns="http://www.w3.org/2000/svg"><path d="m.97180846.11643429c-.53389 0-.96666666.43172678-.96666666.96428571s.43277666.96428571.96666666.96428571h3.08124991l3.32291666 15.63947999c.13146667.5887286.51826223 1.0787143 1.00694445 1.0747929h16.11111112c.51069.0070714.9804255-.4547893.9804255-.9642857 0-.5094965-.4697355-.9714858-.9804255-.9642858h-15.32569446l-.41286333-1.9285714h17.02744669c.4328089-.0032143.8417411-.3320678.9364422-.7533321l2.2555556-9.64286039c.1256988-.55962964-.3615334-1.17111214-.9364423-1.17522321h-21.72986108l-.52361111-2.45089286c-.09147889-.428175-.50766111-.76384285-.94652778-.76339285zm5.73958324 5.14285714h20.1086967l-1.8024467 7.71427287h-16.66494667zm5.2159722 14.78566927c-1.76813 0-3.2222222 1.4504786-3.2222222 3.2142857 0 1.763775 1.4540922 3.2142857 3.2222222 3.2142857s3.2222222-1.4505107 3.2222222-3.2142857-1.4540922-3.2142857-3.2222222-3.2142857zm9.0222222 0c-1.76813 0-3.2222222 1.4504786-3.2222222 3.2142857 0 1.763775 1.4540922 3.2142857 3.2222222 3.2142857s3.2222223-1.4505107 3.2222223-3.2142857-1.4540923-3.2142857-3.2222223-3.2142857zm-9.0222222 1.9285714c.7232922 0 1.2888889.5642036 1.2888889 1.2857143 0 .7214786-.5655967 1.2857143-1.2888889 1.2857143-.7232278 0-1.2888889-.5642357-1.2888889-1.2857143 0-.7215107.5656611-1.2857143 1.2888889-1.2857143zm9.0222222 0c.7232923 0 1.2888889.5642036 1.2888889 1.2857143 0 .7214786-.5655966 1.2857143-1.2888889 1.2857143-.7232277 0-1.2888888-.5642357-1.2888888-1.2857143 0-.7215107.5656611-1.2857143 1.2888888-1.2857143z" transform="translate(0 .205014)"/></svg>