<svg height="16" viewBox="0 0 109 16" width="109" xmlns="http://www.w3.org/2000/svg"><g fill-rule="evenodd" transform="translate(.655147)"><path d="m8.34048492 2.34004598c-.02042701.14109425-.08170806.24187586-.2454224.24187586-.04085403 0-.08170806 0-.18399224-.02015632-.2452733-.04031265-.735969-.12093793-1.20608858-.12093793-.47011957 0-.75639601.06046896-.96066617.22186666-.18399225.1613977-.2454224.42357701-.2454224.80669426v1.10948046h2.4736073c.18399225 0 .32698136.12093793.32698136.30263908v1.87586206c0 .18155403-.14298911.28248276-.32698136.28248276h-2.4736073v7.82624373c0 .181554-.14298911.302639-.34755748.302639h-2.88214762c-.20441926 0-.34755748-.1209379-.34755748-.302639v-7.82624373h-1.57407307c-.20441926 0-.34755748-.10092873-.34755748-.28248276v-1.87586206c0-.18155403.14313822-.30263908.34755748-.30263908h1.57407307v-1.27087817c0-2.19851034 1.14465842-3.3079908 3.61826572-3.3079908 1.59450008 0 2.51431222.24217012 2.82101567.34295172.20441927.06046897.2452733.24217012.22484628.34295173z"/><path d="m14.0775317 15.780892c-4.70164307 0-5.29447385-2.4205242-5.29447385-5.546961 0-3.12658387.59283078-5.56726433 5.29447385-5.56726433 4.7016431 0 5.3149009 2.44068046 5.3149009 5.56726433.0001491 3.1262897-.6131087 5.546961-5.3149009 5.546961zm0-8.79462993c-1.594351 0-1.6762081.92792644-1.6762081 3.24752183 0 2.2994391.0818571 3.2273655 1.6762081 3.2273655 1.6149271 0 1.6763573-.9279264 1.6763573-3.2273655 0-2.31959539-.0614302-3.24752183-1.6763573-3.24752183z"/><path d="m26.8313704 7.20827586c-1.1446584 0-2.1464768.12093793-2.33032.1613977v7.80623444c0 .1815541-.1225621.3026391-.3269813.3026391h-2.9027238c-.1839922 0-.3271304-.1209379-.3271304-.3026391v-8.93587122c0-.72621609.6541118-.94793563 1.8603495-1.21026207.9812423-.20171034 2.350747-.36310804 3.6182657-.36310804h.3475575c.1839922 0 .2861273.04016551.3679845.12093793.0614301.06046896.1022842.1613977.1022842.32264827v1.63383908c-.0004474.24246437-.0004474.46418391-.4092859.46418391z"/><path d="m44.6887202 15.5185655h-2.9027237c-.2044193 0-.3271305-.1209379-.3271305-.3026391v-6.85815169c0-1.06902069-.5519767-1.41197241-1.3490777-1.41197241-.6541118 0-1.4309348.14124138-1.6149271.1814069v8.0887172c0 .1815541-.1429891.3026391-.3475575.3026391h-2.9027237c-.2044193 0-.3271305-.1209379-.3271305-.3026391v-6.85815169c0-1.06902069-.4701195-1.41197241-1.2673696-1.41197241-.6336848 0-1.512792.14124138-1.7172113.1814069v8.0887172c0 .1815541-.1225621.3026391-.3269813.3026391h-2.9027238c-.2044192 0-.3271304-.1209379-.3271304-.3026391v-8.91556778c0-.74622529.6338339-.96809195 1.8806274-1.23027126 1.0016693-.20171035 2.5553153-.40342069 3.843112-.40342069 1.2877966 0 2.1669038.30263908 2.7393076.6656.3884115-.14124138 2.1259007-.6656 3.863539-.6656 2.6165964 0 4.3132316.56481839 4.3132316 3.18705287v7.36235406c0 .181554-.1227112.3024919-.3271305.3024919z"/><path d="m50.9525082 14.9345185c0 .1412414-.0817081.1613977-.1635653.2017104-.2248462.1009287-.7153928.2421701-1.4513618.2421701-1.2265156 0-2.0441927-.5849747-2.0441927-2.0775724v-12.70789886c0-.16154483.1022842-.26217931.2452733-.30263908l1.1038044-.28248276c.1431382-.04031265.2657003.08077241.2657003.24217011v13.01039079c0 .7262161.5111227.8269977.9198122.8269977.2861273 0 .5724037-.0403126.7155419-.0807724l.0817081-.0201563c.0612811 0 .1431382.0201563.1635652.1412414l.1431383.6857563c.0205761.0807724.0205761.1009287.0205761.121085z"/><path d="m58.6856249 15.4781057c-.5928308.1412414-1.5740731.3026391-2.6573014.3026391-1.7580653 0-4.6812161-.0604689-4.6812161-3.3281471 0-2.66269425 1.4513619-2.84410115 3.5365577-3.16689655l3.863539-.62528736v-.94793563c0-.6455908-.0205761-1.16994942-.735969-1.43212873-.3884115-.16139771-.9606662-.24217012-1.8602004-.24217012-1.5740731 0-2.9232998.38326437-3.7818309.58512184-.2044193.04031264-.2861274.02015632-.3269814-.14124138l-.1839922-.90777011c-.0408541-.1814069.1429891-.26217932.2044192-.28233564.6541118-.24217011 2.4121772-.62528735 4.2722285-.62528735 1.4513618 0 2.3917501.20171034 2.9845809.52450574 1.0425233.54466207 1.0630994 1.49274483 1.0630994 2.44068046v5.78913103c-.0001491 1.4116782-.2864255 1.7344736-1.6969333 2.0571218zm.0818571-5.54696087-3.9861011.66574717c-.8993851.1613977-1.7580653.302639-1.7580653 1.7749333 0 2.0171034 1.6762081 2.1583448 3.0254349 2.1583448.8993852 0 1.8603495-.1209379 2.7187315-.4034207z"/><path d="m64.3496115 4.88291802c.5495911-.15389426 2.1587032-.55437242 3.4503765-.55437242 3.3934195 0 4.3338077 1.71446437 4.3338077 5.52695173 0 3.93327817-1.0835264 5.58727357-4.7833511 5.58727357-1.4513619 0-2.7801617-.242023-3.4547005-.4638897-1.0220963-.3429517-1.0630995-.847154-1.0630995-1.5935264v-12.82868966c0-.1613977.0818572-.22186666.2454224-.26217931l1.1038044-.28248275c.1839923-.06046897.2657003.12108505.2657003.24217011v3.50970115zm3.1845271.75681839c-1.1242314 0-2.7187315.38326437-3.086716.4841931v7.68500229c.2248463.0807724 1.3083728.3631081 2.8618697.3631081 2.3508961 0 3.1479971-1.0891771 3.1479971-4.2760828.0001491-3.24766897-.5722547-4.25622069-2.9231508-4.25622069z"/><path d="m76.7468453 15.7807448c-1.7989193 0-3.3524163-.5445149-3.6182657-.6454437-.1022842-.0403126-.2044192-.1009287-.1431382-.3227954l.1838432-.7665287c.0410031-.1410942.1022841-.2621793.3271304-.1814069.0612811.0201563 1.553497.5849747 3.2911353.5849747 1.7374892 0 2.7391585-.5445149 2.7391585-1.7749333 0-1.6741517-1.3082237-1.6136828-2.9028729-1.8557058-1.0016693-.1613977-3.5568355-.3429517-3.5568355-3.0054988 0-2.60222529 2.3508961-3.14674023 4.1498154-3.14674023 1.7579162 0 3.1277191.36310804 3.3524163.42357701.1431382.04031264.2044193.12093793.1838432.24217011l-.1429891.90762299c-.0205762.12108506-.0818572.1613977-.2249954.1613977-.2861274-.04031264-1.7987703-.38311724-3.0048589-.38311724-1.4717888 0-2.6984535.40342069-2.6984535 1.67415173 0 1.37165977 1.3900808 1.53305747 2.6574504 1.69445517 1.8397734.24217011 3.822685.38326437 3.822685 3.12658386.0002982 2.6217931-2.0438944 3.2672368-4.4150685 3.2672368z"/><path d="m108.041632 2.44064153c-.233494.77844597-.775779 1.38166436-1.208623 2.04417471-1.074432 1.64487356-2.171079 3.27562299-3.258482 4.9124046-.022813.03428046-.039512.07268046-.067842.12535172.361424.24393563.724786.47551264 1.0713.73004134.146866.1079908.293434.2451127.378124.4016552.210681.3900322.081857.8442115-.269279 1.1311081-1.246197 1.0184092-2.505068 2.0226942-3.727558 3.0683218-.648595.5548138-1.4236286.2405517-1.6526498-.4406437-.8743359-2.6003126-1.78386-5.18900228-2.6807104-7.78181147-.0150593-.04369656-.0351881-.08577472-.07142-.17243219-.0678416.18788046-.1230094.33515402-.1741515.48389885-.8425771 2.44627127-1.6848561 4.89254251-2.5269859 7.33896091-.0292241.0853333-.0535277.1724322-.0854356.2567356-.2337925.6174897-.9652884.8208184-1.4838662.4057748-.5121664-.4098943-1.0165796-.8293518-1.5248693-1.2443954-.7525194-.6149886-1.5017585-1.2338023-2.2586018-1.8434943-.6116177-.4933149-.5861212-1.1793655.0694817-1.6197149.3723085-.25011498.7434241-.50184832 1.1316865-.7638805-.1462694-.21745287-.2828471-.42254713-.4218104-.62602299-1.2968919-1.89734253-2.5887143-3.79762759-3.8938068-5.68937931-.4690759-.67972414-.2998447-1.79288276.5178323-2.20498391.4504381-.22701609.8780635-.49728735 1.3213447-.73842758.5109736-.27806897 1.0250783-.27542069 1.5290441.02280459 2.5319063 1.49862989 5.0639617 2.99711265 7.5927369 4.5005977.1489532.08871725.2548158.09710345.4103295.00397242 2.5143123-1.50377931 5.032948-3.00079081 7.551286-4.49794943.538707-.32044138 1.080992-.32456092 1.627154-.01118161.416443.23878621.830649.48272184 1.258274.70105748.443431.22628045.651727.61307586.808135 1.04651034.015954.04428506.026689.09004138.03981.1352092-.000447.10857931-.000447.21730574-.000447.32573793zm-1.39187.61587126c-.007903-.01132873-.015805-.02295172-.023409-.03442759-2.967733.86010115-5.935465 1.7202023-8.9506118 2.59413334 1.7067741 1.13655172 3.3756758 2.2477977 5.0590408 3.36860689 1.313592-1.98929655 2.614062-3.95873103 3.91498-5.92831264zm-11.1506163 2.54881839c-2.9842827-.86966437-5.9202563-1.72535172-8.8559316-2.58089195-.0070079.01206437-.0138666.02412873-.0208744.03634023 1.3280543 1.9433931 2.6559595 3.88663908 3.9929599 5.84312643 1.6270043-1.09888735 3.2353709-2.18512183 4.8838461-3.29857471zm-2.5729095 8.49831722c.6569448-1.9195586 1.3049434-3.8121931 1.9526439-5.70468044-.064114.0256-.1016878.06414713-.1328502.10696092-.6260806.86127816-1.2517139 1.72314482-1.8774963 2.58457012-.0852865.117554-.1671437.2376092-.2586925.3504552-.3945247.4862528-1.1507716.4658023-1.5132393-.0439908-.2519829-.3539862-.4935286-.7150345-.7513265-1.0900598-.3806582.2568828-.7486427.5050851-1.1333267.7646161 1.2442588 1.0157609 2.4663013 2.0134253 3.7142876 3.0321287zm-6.5600542-12.20619768c2.1341013.62469885 4.2252612 1.23703908 6.3161229 1.84908506-.0175941-.05149425-.045178-.08194943-.0790243-.10195862-1.437048-.85318621-2.8740961-1.70622529-4.3129333-2.55691035-.1652054-.09769195-.3369713-.08606896-.5038167.00809196-.3389096.19097011-.6785646.38076322-1.0173251.57143908-.1206238.06767816-.2403529.13712184-.4030235.23025287zm7.5237024 6.07161379c-.0120772-.01191724-.0241545-.02383448-.0362318-.03575172-.886115.59865747-1.7722301 1.1976092-2.6707206 1.80465287.2391601.34633564.461919.66898394.6948168 1.00634484.6866161-.94690576 1.3493759-1.86114943 2.0121356-2.77524599z"/></g></svg>